# xmcd
#
# Track frame offsets:
#	150
#	21467
#	59663
#	80461
#	98408
#	121771
#	142051
#	166713
#	186604
#	215920
#
# Disc length: 3214 seconds
#
# Revision: 0
# Processed by: cddbd v1.5.2PL0 Copyright (c) Steve Scherf et al.
# Submitted via: dBpowerAMP V4.0
#
DISCID=910c8c0a
DTITLE=CARL WEATHERSBY - Don't Lay Your Blues On Me
DYEAR=1996
DGENRE=Blues
TTITLE0=Rock Your Town
TTITLE1=The Things The Blues Will Make You Do
TTITLE2=Killing Floor
TTITLE3=Your Love Is Everything
TTITLE4=All Your Affection Is Gone
TTITLE5=Don't Lay Your Blues On Me
TTITLE6=Same Thing
TTITLE7=Poverty
TTITLE8=Somebody Help Me
TTITLE9=Fannie Mae
EXTD=
EXTT0=
EXTT1=
EXTT2=
EXTT3=
EXTT4=
EXTT5=
EXTT6=
EXTT7=
EXTT8=
EXTT9=
PLAYORDER=
